<svg xmlns="http://www.w3.org/2000/svg" width="36" height="36" viewBox="0 0 36 36">
  <g id="Advisory_not_selected" data-name="Advisory not selected" transform="translate(-5784 4270)">
    <g id="Group_36229" data-name="Group 36229" transform="translate(5300 -4840)">
      <g id="noun_important_1748425" transform="translate(482.302 572.5)">
        <g id="Group_36227" data-name="Group 36227" transform="translate(19.563 2.5)">
          <path id="Path_41463" data-name="Path 41463" d="M64,2.5H55.569A4.272,4.272,0,0,0,51.3,6.769v5a4.272,4.272,0,0,0,4.269,4.269h.773a6.3,6.3,0,0,1-.442,1.987,1.472,1.472,0,0,0,.442,1.693,1.451,1.451,0,0,0,.994.368,1.675,1.675,0,0,0,.736-.184,15.266,15.266,0,0,0,4.2-3.864H64a4.272,4.272,0,0,0,4.269-4.269v-5A4.272,4.272,0,0,0,64,2.5Zm2.539,9.273A2.544,2.544,0,0,1,64,14.313H61.825a.948.948,0,0,0-.7.368A14.938,14.938,0,0,1,57.7,18.1a8.487,8.487,0,0,0,.368-2.944.848.848,0,0,0-.846-.81H55.569A2.544,2.544,0,0,1,53.03,11.81V6.769A2.544,2.544,0,0,1,55.569,4.23H64a2.544,2.544,0,0,1,2.539,2.539v5Z" transform="translate(-51.3 -2.5)" fill="#92a9de"/>
          <path id="Path_41464" data-name="Path 41464" d="M71.715,14.329,69.949,14l-.883-1.582a.344.344,0,0,0-.589,0L67.593,14l-1.766.331a.33.33,0,0,0-.184.552l1.214,1.325-.221,1.8a.328.328,0,0,0,.478.331l1.619-.773,1.619.773a.344.344,0,0,0,.478-.331l-.221-1.8,1.214-1.325C72.046,14.66,71.973,14.366,71.715,14.329Z" transform="translate(-60.307 -8.662)" fill="#92a9de"/>
        </g>
      </g>
      <g id="Group_36228" data-name="Group 36228" transform="translate(462 61)">
        <g id="chat-24px" transform="translate(22 509)">
          <path id="Path_41401" data-name="Path 41401" d="M0,0H36V36H0Z" fill="none"/>
        </g>
      </g>
    </g>
    <path id="Path_41476" data-name="Path 41476" d="M15.85,12.7A4.85,4.85,0,1,0,11,7.85,4.85,4.85,0,0,0,15.85,12.7Zm0-8.314A3.464,3.464,0,1,1,12.386,7.85,3.464,3.464,0,0,1,15.85,4.386Z" transform="translate(5778 -4264.4)" fill="#92a9de" stroke="#92a9de" stroke-width="1"/>
    <path id="Path_41475" data-name="Path 41475" d="M20.654,22.3a10.547,10.547,0,0,0-15.322,0A1.229,1.229,0,0,0,5,23.144v7.233a1.229,1.229,0,0,0,1.229,1.229H19.751a1.229,1.229,0,0,0,1.229-1.229V23.144a1.229,1.229,0,0,0-.326-.842Zm-.9,8.075H6.229V23.138a9.324,9.324,0,0,1,13.521,0h0Z" transform="translate(5781.02 -4268.964)" fill="#92a9de" stroke="#92a9de" stroke-width="1"/>
  </g>
</svg>
