<svg xmlns="http://www.w3.org/2000/svg" width="36.545" height="36" viewBox="0 0 36.545 36">
  <g id="Group_35503" data-name="Group 35503" transform="translate(-0.132)">
    <path id="Path_41024" data-name="Path 41024" d="M17.93,17.359A4.88,4.88,0,1,0,13,12.429,4.938,4.938,0,0,0,17.93,17.359Zm-.1-7.747h0a2.92,2.92,0,0,1,2.918,2.918,2.868,2.868,0,0,1-5.735,0A2.9,2.9,0,0,1,17.829,9.612Z" transform="translate(0.324 1.052)" fill="#278efd"/>
    <path id="Path_41025" data-name="Path 41025" d="M32.753,16.715A9.961,9.961,0,0,0,25.71,14.2h-.8A6.708,6.708,0,0,1,24,16.313a9.761,9.761,0,0,1,1.71-.1,8.368,8.368,0,0,1,5.332,1.61v7.244h2.012V17.017Z" transform="translate(0.39 1.092)" fill="#278efd"/>
    <rect id="Rectangle_4353" data-name="Rectangle 4353" width="36.545" height="36" transform="translate(0.132)" fill="rgba(0,0,0,0)"/>
    <path id="Path_41026" data-name="Path 41026" d="M23.408,7.821a2.457,2.457,0,1,1,4.527,1.912,2.511,2.511,0,0,1-2.213,1.509,1.712,1.712,0,0,1-.7-.1,7.127,7.127,0,0,1,.1,1.408v.6c.2,0,.4.1.6.1a4.477,4.477,0,1,0,.1-8.954A4.314,4.314,0,0,0,22,6.513,4.3,4.3,0,0,1,23.408,7.821Z" transform="translate(0.378 1.032)" fill="#278efd"/>
    <path id="Path_41027" data-name="Path 41027" d="M12.055,16.413a6.708,6.708,0,0,1-.905-2.113h-.8A10.352,10.352,0,0,0,3.3,16.715l-.3.3v8.048H5.012V17.821a8.552,8.552,0,0,1,5.332-1.61A8.86,8.86,0,0,1,12.055,16.413Z" transform="translate(0.263 1.093)" fill="#278efd"/>
    <path id="Path_41028" data-name="Path 41028" d="M10.327,13.154a1.276,1.276,0,0,0,.6-.1v-.6a6.187,6.187,0,0,1,.1-1.408,1.712,1.712,0,0,1-.7.1,2.415,2.415,0,1,1,0-4.829,2.542,2.542,0,0,1,2.314,1.509A10.016,10.016,0,0,1,14.15,6.413a4.469,4.469,0,1,0-3.823,6.741Z" transform="translate(0.279 1.032)" fill="#278efd"/>
    <path id="Path_41029" data-name="Path 41029" d="M26.2,22.722l-.2-.3A10.154,10.154,0,0,0,18.149,19,10.364,10.364,0,0,0,10.2,22.421l-.2.3v7.646a1.7,1.7,0,0,0,1.71,1.71H24.588a1.763,1.763,0,0,0,1.71-1.71h0V22.722Zm-2.012,7.344H12.012v-6.64a8.586,8.586,0,0,1,6.137-2.415,8.114,8.114,0,0,1,6.036,2.415Z" transform="translate(0.306 1.121)" fill="#278efd"/>
  </g>
</svg>
