<svg xmlns="http://www.w3.org/2000/svg" width="36" height="36" viewBox="0 0 36 36">
  <g id="Clients" transform="translate(0 1)">
    <path id="Path_41024" data-name="Path 41024" d="M17.9,17.3A4.85,4.85,0,1,0,13,12.4a4.908,4.908,0,0,0,4.9,4.9Zm-.1-7.7h0a2.9,2.9,0,0,1,2.9,2.9,2.85,2.85,0,0,1-5.7,0,2.883,2.883,0,0,1,2.8-2.9Z" fill="#92a9de"/>
    <path id="Path_41025" data-name="Path 41025" d="M32.7,16.7a9.9,9.9,0,0,0-7-2.5h-.8a6.667,6.667,0,0,1-.9,2.1,9.7,9.7,0,0,1,1.7-.1A8.317,8.317,0,0,1,31,17.8V25h2V17Z" fill="#92a9de"/>
    <rect id="Rectangle_4353" data-name="Rectangle 4353" width="36" height="36" transform="translate(0 -1)" fill="#92a9de" opacity="0"/>
    <path id="Path_41026" data-name="Path 41026" d="M23.4,7.8a2.442,2.442,0,0,1,4.5,1.9,2.5,2.5,0,0,1-2.2,1.5,1.7,1.7,0,0,1-.7-.1,7.084,7.084,0,0,1,.1,1.4v.6c.2,0,.4.1.6.1a4.45,4.45,0,1,0,.1-8.9A4.288,4.288,0,0,0,22,6.5a4.269,4.269,0,0,1,1.4,1.3Z" fill="#92a9de"/>
    <path id="Path_41027" data-name="Path 41027" d="M12,16.4a6.667,6.667,0,0,1-.9-2.1h-.8a10.29,10.29,0,0,0-7,2.4L3,17v8H5V17.8a8.5,8.5,0,0,1,5.3-1.6,8.807,8.807,0,0,1,1.7.2Z" fill="#92a9de"/>
    <path id="Path_41028" data-name="Path 41028" d="M10.3,13.1a1.268,1.268,0,0,0,.6-.1v-.6A6.15,6.15,0,0,1,11,11a1.7,1.7,0,0,1-.7.1,2.4,2.4,0,1,1,0-4.8,2.526,2.526,0,0,1,2.3,1.5,9.955,9.955,0,0,1,1.5-1.4,4.442,4.442,0,1,0-3.8,6.7Z" fill="#92a9de"/>
    <path id="Path_41029" data-name="Path 41029" d="M26.1,22.7l-.2-.3A10.093,10.093,0,0,0,18.1,19a10.3,10.3,0,0,0-7.9,3.4l-.2.3v7.6A1.685,1.685,0,0,0,11.7,32H24.5a1.752,1.752,0,0,0,1.7-1.7h0V22.7Zm-2,7.3H12V23.4A8.534,8.534,0,0,1,18.1,21a8.065,8.065,0,0,1,6,2.4Z" fill="#92a9de"/>
  </g>
</svg>
