<svg xmlns="http://www.w3.org/2000/svg" width="24" height="24" viewBox="0 0 24 24">
  <g id="Group_35392" data-name="Group 35392" transform="translate(-1660 -537)">
    <g id="Group_35358" data-name="Group 35358" transform="translate(1660 537)">
      <rect id="Rectangle_4459" data-name="Rectangle 4459" width="24" height="24" fill="#1592e6" opacity="0"/>
    </g>
    <g id="noun_Download_3247914" transform="translate(1662.4 539.4)">
      <g id="_25-" data-name="25-" transform="translate(0 0)">
        <path id="Path_41177" data-name="Path 41177" d="M20.2,15.08v4.48a.64.64,0,0,1-.64.64H1.64A.64.64,0,0,1,1,19.56V15.08a.64.64,0,0,1,1.28,0v3.84H18.92V15.08a.64.64,0,1,1,1.28,0Zm-10.052.772a.64.64,0,0,0,.9,0l6.4-6.4a.64.64,0,1,0-.905-.905L11.24,13.855V1.64a.64.64,0,1,0-1.28,0V13.855L4.652,8.548a.64.64,0,1,0-.905.905Z" transform="translate(-1 -1)" fill="#1592e6"/>
      </g>
    </g>
  </g>
</svg>
