<svg xmlns="http://www.w3.org/2000/svg" width="511.122" height="509.738" viewBox="0 0 511.122 509.738"><g transform="translate(-10684 3799)"><path d="M376,2V20l32,3,4-17L376,2M308,20l9,16h1l28-12L342,6,308,20m135.379,1.16c-1.857.868-2.963,3.179-3.954,4.844-6.64,11.162,2.41,13.265,10.575,19.8,3.06,2.45,7.6,8.535,12,6.441,17.13-8.151,3.5-18.873-6-25.527-2.864-2.005-8.833-7.331-12.621-5.561M320,78c-6.962,0-21.428-2.789-26.3,3.228-6.913,8.543-2.754,31.26-2.7,41.772.021,4.306.08,9.337,3.418,12.566C297.873,138.907,303.6,138,308,138v59c0,6.509-1.863,17.216,2.728,22.581,5.5,6.433,21.7,3.419,29.272,3.419h75c7.34,0,21.877,2.732,27.3-3.419,4.677-5.307,2.7-16.065,2.7-22.581V138c4.819,0,10.99.946,14.436-3.228C466.17,126.614,462,104.111,462,94c0-4.272.471-9.284-2.514-12.772C454.47,75.367,440.96,78,434,78c7.185-22.472-9-49.049-35-37.471C389.217,44.886,381.143,58.07,378,68h-2c-3.869-10.569-11.885-24.265-23-28.164C327.729,30.97,311.777,55.938,320,78m-45,1c3.777-7.984,14.716-15.818,16.658-24,.988-4.163-7.413-12.6-11.568-12.079-5.58.707-21.335,21.132-20.209,26.866C260.788,74.4,271.064,77.864,275,79Z" transform="translate(10683.122 -3801)" fill="#92a9de"/><path d="M361,78c-2.821-6.547-9.888-23.472-19-21.522-9.252,1.98-8.056,17.418-.614,20.919,5.025,2.364,14.109.6,19.61.6m32,0c5.424,0,13.765,1.581,18.787-.6,7.593-3.3,9.789-18.6.209-20.78C402.85,54.536,395.475,71.24,393,78Z" transform="translate(10683.122 -3801)" fill="#fff"/><path d="M490,107l18-5L494,69c-3.959,1.253-13.044,4.7-14.184,9.21C478.112,84.958,488.452,99.593,490,107Z" transform="translate(10683.122 -3801)" fill="#92a9de"/><path d="M309,96v24h42V96H309m60,0v24h16V96H369m33,0v24h42V96Z" transform="translate(10683.122 -3801)" fill="#fff"/><path d="M245,102l-4,36h18l4-31-18-5m246,67,17,4,4-36-16.258,1.028L493.985,147Z" transform="translate(10683.122 -3801)" fill="#92a9de"/><path d="M326,138v67h25V138H326m43,0v67h16V138H369m33,0v67h25V138Z" transform="translate(10683.122 -3801)" fill="#fff"/><path d="M245,172l14,34,16-9v-1l-12-28-18,4m227,62h1c7.72-7.882,18.837-18.813,21-30l-13.9-6.748L463.974,216l-2.628,6L472,234m-154,5c-7.984-3.777-15.818-14.716-24-16.658-4.23-1-12.585,7.454-12.079,11.643.685,5.663,21.022,21.335,26.866,20.137,4.628-.949,8.068-11.157,9.213-15.122m89,12,4,18c11.844-2.715,23.836-7.3,34-14l-8-15-30,11m-62,1-4,17,36,4V255l-32-3m-137,4c-.552,4.347-3.35,11.547-1.393,15.683,2.5,5.282,23.914,6.082,29.393,6.317v1l-50,35.436L164,315l-60,.214L82,326.8,41,350.72,11,368.2.878,376.1,8,391c25.26-10.885,49.272-28.075,73-42.011,8.477-4.979,17.627-12.246,27-15.29,6.247-2.028,14.487-.7,21-.7,19.5,0,44.063,4.039,63-.533,6.757-1.632,12.571-7.522,18-11.594,11.52-8.639,22.779-18.262,35-25.873l-4,28,17,3c4.453-13.155,5.117-28.306,7.414-42,.829-4.944,2.987-11.369-.156-15.891-3.286-4.728-10.1-4.831-15.258-5.7-13.711-2.3-28.093-6.127-42-6.414m210,33.533c-10.153,2.481-8,13.353-8,21.467V473c0,8.542-3.588,27.962,2.653,34.566C416.744,511.9,426.6,510,432,510c17.368,0,40.2,3.971,56.995-.318C497.624,507.478,496,495.734,496,489V328c0-9.266,3.536-28.083-2.879-35.581C488.87,287.45,479.787,289,474,289c-17.336,0-39.165-3.58-56,.533Z" transform="translate(10683.122 -3801)" fill="#92a9de"/><path d="M428,307V492h50V307Z" transform="translate(10684.749 -3801)" fill="#fff"/><path d="M288.105,366.742C281.681,369.469,283,378.4,283,384V485c0,6.085-1.706,15.361,1.457,20.811,3.483,6,12.716,4.189,18.543,4.189h41c5.641,0,13.661,1.443,18.981-.6C369.789,506.78,369,497.9,369,492V392c0-6.428,1.816-16.306-1.858-21.941C363.389,364.3,354.908,366,349,366H307C301.423,366,293.316,364.531,288.105,366.742Z" transform="translate(10683.122 -3801)" fill="#92a9de"/><path d="M301,383V492h50V383Z" transform="translate(10683.122 -3801)" fill="#fff"/><path d="M164,399.533C153.571,402.1,156,414.8,156,423v59c0,6.792-2.059,17.753,1.457,23.811,3.483,6,12.716,4.189,18.543,4.189,17.973,0,41.616,4.115,58.995-.318C244.5,507.258,242,493.286,242,486V427c0-6.889,2.01-17.792-2.09-23.775C236.027,397.557,226.9,399,221,399,203.385,399,181.1,395.321,164,399.533Z" transform="translate(10683.122 -3801)" fill="#92a9de"/><path d="M174,417v75h50V417Z" transform="translate(10683.122 -3801)" fill="#fff"/><path d="M34.055,426.028C27.762,429.43,29,438.036,29,444v45c0,5.54-1.428,13.975,2.7,18.427,4,4.3,13.011,2.573,18.3,2.573H92c5.178,0,13.265,1.5,17.945-1.028C116.238,505.57,115,496.964,115,491V446c0-5.548,1.3-13.246-2.514-17.852C108.434,423.258,99.649,425,94,425H52C46.822,425,38.735,423.5,34.055,426.028Z" transform="translate(10683.122 -3801)" fill="#92a9de"/><path d="M47,443v49H97V443Z" transform="translate(10683.122 -3801)" fill="#fff"/></g></svg>