<svg xmlns="http://www.w3.org/2000/svg" width="30" height="30" viewBox="0 0 30 30">
  <g id="Portfolio" transform="translate(0 2)">
    <g id="Group_36354" data-name="Group 36354">
      <g id="briefcase-line">
        <path id="Path_41366" data-name="Path 41366" d="M0,0H30V30H0Z" transform="translate(0 -2)" fill="#1592e6" opacity="0"/>
        <path id="Path_41362" data-name="Path 41362" d="M27,26.648H3.667V21.082A5.917,5.917,0,0,1,2,19.89v6.758a1.667,1.667,0,0,0,1.667,1.667H27a1.667,1.667,0,0,0,1.667-1.667V19.89A5.617,5.617,0,0,1,27,21.073Z" transform="translate(-0.333 -3.315)" fill="#1592e6"/>
        <g id="Group_35765" data-name="Group 35765" transform="translate(1.667 1.667)">
          <path id="Path_41364" data-name="Path 41364" d="M27.833,5.333h-7.5V3.983A2.017,2.017,0,0,0,18.292,2H12.375a2.017,2.017,0,0,0-2.042,1.983v1.35h-7.5A.833.833,0,0,0,2,6.167v6.667A4.167,4.167,0,0,0,6.167,17h4.207l.023-1.667H6.167a2.5,2.5,0,0,1-2.5-2.5V7H27v5.833a2.5,2.5,0,0,1-2.5,2.5H21.167V17H24.5a4.167,4.167,0,0,0,4.167-4.167V6.167A.833.833,0,0,0,27.833,5.333Zm-9.167,0H12V4.025a.375.375,0,0,1,.375-.358H18.3a.358.358,0,0,1,.367.35Z" transform="translate(-2 -2)" fill="#1592e6"/>
          <path id="Path_41365" data-name="Path 41365" d="M7.436-11.6h-1.8a3.1,3.1,0,0,1,.617,1.508H7.786l-.35,1.2H6.278A2.72,2.72,0,0,1,5.2-6.863a4.347,4.347,0,0,1-2.6.683L6.354-1.8v.092H4.626L.59-6.429.582-7.375h1.9A2.72,2.72,0,0,0,4.024-7.79,1.78,1.78,0,0,0,4.778-8.9H.369l.35-1.2H4.763Q4.4-11.54,2.524-11.6H.384l.358-1.2H7.786Z" transform="translate(9.632 21.3)" fill="#1592e6"/>
        </g>
      </g>
    </g>
  </g>
</svg>
