<svg id="Reports" xmlns="http://www.w3.org/2000/svg" width="36" height="36" viewBox="0 0 36 36">
  <path id="Path_41109" data-name="Path 41109" d="M31,10H13a1,1,0,0,0-1,1V33a1,1,0,0,0,1,1H31a1,1,0,0,0,1-1V11A1,1,0,0,0,31,10ZM28,26H16V24H28Zm0-4H16V20H28Zm0-4H16V16H28Z" fill="#fff"/>
  <path id="Path_41110" data-name="Path 41110" d="M6,24V4H24V3a1,1,0,0,0-1-1H5A1,1,0,0,0,4,3V25a1,1,0,0,0,1,1H6Z" fill="#fff"/>
  <path id="Path_41111" data-name="Path 41111" d="M10,28V8H28V7a1,1,0,0,0-1-1H9A1,1,0,0,0,8,7V29a1,1,0,0,0,1,1h1Z" fill="#fff"/>
  <rect id="Rectangle_4645" data-name="Rectangle 4645" width="36" height="36" fill="#fff" opacity="0"/>
</svg>
