<svg xmlns="http://www.w3.org/2000/svg" width="32.31" height="27.807" viewBox="0 0 32.31 27.807">
  <g id="Group_45075" data-name="Group 45075" transform="translate(-155.6 -896.691)">
    <g id="noun_Folder_78797" transform="translate(151 885.663)">
      <path id="Path_56474" data-name="Path 56474"
        d="M34.258,14.43H17.81a.751.751,0,0,1-.6-.3l-1.35-1.8a2.251,2.251,0,0,0-1.8-.9H7.251A2.251,2.251,0,0,0,5,13.679V36.185a2.25,2.25,0,0,0,2.251,2.251H34.258a2.251,2.251,0,0,0,2.251-2.251V16.68a2.252,2.252,0,0,0-2.251-2.251m-27.007-1.5h6.562a1.5,1.5,0,0,1,1.2.6l1.351,1.8a1.5,1.5,0,0,0,1.2.6H34.258a.75.75,0,0,1,.75.75v2.251H6.5V13.68a.75.75,0,0,1,.75-.751M34.258,36.936H7.251a.751.751,0,0,1-.75-.751V20.431H35.008V36.185a.751.751,0,0,1-.751.751"
        stroke="#ffffff" stroke-width="0.8" opacity="0.7" fill="#fff" />
    </g>
  </g>
</svg>