<svg xmlns="http://www.w3.org/2000/svg" width="36" height="36" viewBox="0 0 36 36">
  <g id="Uploads" transform="translate(-22 -388)">
    <rect id="Rectangle_4459" data-name="Rectangle 4459" width="36" height="36" transform="translate(22 388)" fill="rgba(0,0,0,0)"/>
    <path id="Exclusion_1" data-name="Exclusion 1" d="M-6513,20532a15.893,15.893,0,0,1-11.314-4.689A15.891,15.891,0,0,1-6529,20516a15.9,15.9,0,0,1,4.686-11.314A15.891,15.891,0,0,1-6513,20500a15.89,15.89,0,0,1,11.313,4.686A15.9,15.9,0,0,1-6497,20516a15.891,15.891,0,0,1-4.686,11.311A15.891,15.891,0,0,1-6513,20532Zm-7.2-8.916a.957.957,0,0,0-.953.959.954.954,0,0,0,.953.953h13.892a.957.957,0,0,0,.958-.953.96.96,0,0,0-.958-.959Zm6.2-14.906v12a1,1,0,0,0,1,1,1,1,0,0,0,1-1V20508l5.282,5.281a1.006,1.006,0,0,0,.759.346,1.054,1.054,0,0,0,.235-.027.99.99,0,0,0,.738-.736,1,1,0,0,0-.32-.994l-7.611-7.611-7.61,7.611a1,1,0,0,0-.32.994.99.99,0,0,0,.737.736,1.061,1.061,0,0,0,.235.027,1.007,1.007,0,0,0,.759-.346l5.115-5.1Z" transform="translate(6553 -20110)" fill="#fff"/>
  </g>
</svg>
