<svg xmlns="http://www.w3.org/2000/svg" width="36" height="36" viewBox="0 0 36 36">
  <g id="Uploads" transform="translate(-126 -402)">
    <rect id="Rectangle_4459" data-name="Rectangle 4459" width="36" height="36" transform="translate(126 402)" fill="#92a9de" opacity="0"/>
    <path id="Path_41098" data-name="Path 41098" d="M18.08,8.26l-7.61,7.61a1,1,0,1,0,1.41,1.41L17,12.18v12a1,1,0,0,0,2,0V12l5.28,5.28a1,1,0,1,0,1.41-1.41Z" transform="translate(126 400)" fill="#92a9de"/>
    <path id="Path_41097" data-name="Path 41097" d="M18,2A16,16,0,1,0,34,18,16,16,0,0,0,18,2Zm0,30A14,14,0,1,1,32,18,14,14,0,0,1,18,32Z" transform="translate(126 402)" fill="#92a9de"/>
    <path id="Path_41099" data-name="Path 41099" d="M18.846,31H4.957a.957.957,0,0,0,0,1.914H18.846a.957.957,0,0,0,0-1.914Z" transform="translate(131.845 396.086)" fill="#92a9de"/>
  </g>
</svg>
